# xmcd CD database file
#
# Track frame offsets:
#	150
#	16520
#	32500
#	52760
#	64922
#	79927
#	95360
#	111310
#	125430
#	139702
#	161047
#	174227
#	187407
#	200467
#	223040
#	237435
#
# Disc length: 3326 seconds
#
# Revision: 0
# Processed by: cddbd v1.4PL0 Copyright (c) Steve Scherf et al.
# Submitted via: CDex 1.50Beta5
#
DISCID=da0cfc10
DTITLE=Cosmus - Diesel - Romantik
DYEAR=1985
DGENRE=Country
TTITLE0=TOM ASTOR - ich moecht so gern Dave Dudley Hoern
TTITLE1=Sammy`s Saloon - Mich ruft die Autobahn
TTITLE2=Nancy Wood - Lieder der Strasse
TTITLE3=Andre Kentucky - Die Schoensten Augen Hamburgs
TTITLE4=Hill`s Angels - Banjo Fieber
TTITLE5=Western Union - Transit Cowboy
TTITLE6=Heidi Gehlert - Ich sag`s Ja
TTITLE7=Tenessee - Tausche UFO gegen 30-Tonner Diesel
TTITLE8=Oliver Freytag - Mr. Trucker
TTITLE9=SBY KENT - Wer Liebe sucht
TTITLE10=H. O. W. Company - Frei sein
TTITLE11=Rafael St. John - Hallo Fremder
TTITLE12=Andre Kentucky - Nur mit Dir
TTITLE13=Emsland Hillbillies - Bauer Barns Muehle
TTITLE14=Hains Kirstain and Fuzzy Tom - Fuzzy Das war der Groesste
TTITLE15=Sammy`s Saloon Featuring Nancy Wood - Stark genug
EXTD=YEAR: 1985
EXTT0=
EXTT1=
EXTT2=
EXTT3=
EXTT4=
EXTT5=
EXTT6=
EXTT7=
EXTT8=
EXTT9=
EXTT10=
EXTT11=
EXTT12=
EXTT13=
EXTT14=
EXTT15=
PLAYORDER=
